<?xml version="1.0" encoding="UTF-8"?>
<svg width="37px" height="37px" viewBox="0 0 37 37" version="1.1" xmlns="http://www.w3.org/2000/svg" xmlns:xlink="http://www.w3.org/1999/xlink">
    <!-- Generator: Sketch 63.1 (92452) - https://sketch.com -->
    <title>Combined Shape</title>
    <desc>Created with Sketch.</desc>
    <g id="Page" stroke="none" stroke-width="1" fill="none" fill-rule="evenodd">
        <g id="07-Account-Manager-View-Candidate-profile" transform="translate(-445.000000, -1019.000000)" fill="#FFFFFF" fill-rule="nonzero">
            <g id="Group-35" transform="translate(175.000000, 177.000000)">
                <g id="Group-17">
                    <g id="Group-32" transform="translate(30.000000, 467.000000)">
                        <g id="Group-34">
                            <path d="M255.031147,375 C263.319076,375 270.062365,381.743329 270.062365,390.031306 C270.062365,393.342148 268.973303,396.396206 267.152576,398.882585 L267.152576,398.882585 L277,408.729922 C277,408.729922 273.730013,412 273.730013,412 L273.730013,412 L263.882733,402.152663 C261.396369,403.9734 258.342041,405.062612 255.031219,405.062612 C246.74329,405.062612 240,398.319283 240,390.031306 C240,381.743329 246.743218,375 255.031147,375 Z M255.031075,379.624973 C249.292737,379.624973 244.624874,384.292863 244.624874,390.031234 C244.624874,395.769606 249.292737,400.437496 255.031075,400.437496 C260.769413,400.437496 265.437276,395.769606 265.437276,390.031234 C265.437276,384.292863 260.769413,379.624973 255.031075,379.624973 Z M257.7,385 L257.7,388.3 L261,388.3 L261,392.7 L257.7,392.7 L257.7,396 L253.3,396 L253.3,392.7 L250,392.7 L250,388.3 L253.3,388.3 L253.3,385 L257.7,385 Z" id="Combined-Shape"></path>
                        </g>
                    </g>
                </g>
            </g>
        </g>
    </g>
</svg>