<?xml version="1.0" encoding="UTF-8"?>
<svg width="64px" height="64px" viewBox="0 0 64 64" version="1.1" xmlns="http://www.w3.org/2000/svg" xmlns:xlink="http://www.w3.org/1999/xlink">
    <!-- Generator: Sketch 63.1 (92452) - https://sketch.com -->
    <title>Group 2</title>
    <desc>Created with Sketch.</desc>
    <g id="Page-1" stroke="none" stroke-width="1" fill="none" fill-rule="evenodd">
        <g id="Group-2">
            <g id="document" fill="#0077B7" fill-rule="nonzero">
                <path d="M9.2138978,0 L0.571428571,8.598375 L0.571428571,64 L49.5714286,64 L49.5714286,0 L9.2138978,0 Z M46.9417327,61.3928571 L3.20112446,61.3928571 L3.20112446,10.1071429 L11.8791209,10.1071429 L11.8791209,2.60714286 L46.9417327,2.60714286 L46.9417327,61.3928571 Z" id="Shape"></path>
            </g>
            <path d="M41.9104507,43.2893112 C40.9048786,42.1254293 39.4353071,41.318163 37.7740295,41.0161355 C35.147277,40.5390541 32.6532641,40.3633362 30.3091567,40.4071661 C28.1757556,38.2233767 26.112983,35.645517 24.7052606,32.8139755 C25.9366082,28.6974222 26.5879894,25.1376409 26.9544978,23.1320929 C27.14319,22.1011616 26.8612,21.0043526 26.199598,20.1978833 C25.5744241,19.4364391 24.6701429,19 23.7185577,19 C23.7177715,19 23.7171163,19 23.7163301,19 C22.7909521,19.0003985 22.0047347,19.3837105 21.4429823,20.1082313 C19.5623501,22.5354756 20.8476846,28.4112 21.1253504,29.5673784 C21.409568,30.7386982 21.8131597,31.8789385 22.3093939,32.9842478 C21.3330429,36.1038711 20.0163907,39.4917862 18.2341667,42.6970769 C12.2856453,44.8960075 8.74163902,47.9177441 8.45086959,48.1718244 C7.46351148,49.1452457 6.97540147,50.1226515 7.00095354,51.0776111 C7.01549856,51.6185778 7.20720459,52.4184063 8.03928474,53.1547479 C8.67677608,53.7182936 9.49221463,54 10.3206258,54 C11.1606991,54 12.0146624,53.7101917 12.7083682,53.1315047 C15.5798965,50.7364023 17.880893,47.7642068 19.7271937,44.6076602 C22.4908791,43.6534975 25.7631163,42.8997568 29.4456279,42.7211169 C32.0941325,45.3203602 34.7339886,47.3045245 36.3895006,48.4561872 C38.1477449,49.679173 40.4974869,49.5204558 41.9788516,48.0809771 C43.3641668,46.7327441 43.3386147,44.9414312 41.9104507,43.2893112 Z M11.084645,50.6246822 C10.5423337,51.0963534 9.74707723,51.1277793 9.27760773,50.6944394 C9.09737093,50.5275859 9.00385058,50.3746838 9.00011511,50.2395381 C8.99718009,50.1286313 9.04534107,49.7082563 9.73453669,48.997156 C9.78496564,48.9520604 12.0475978,46.9417858 16,45 C14.5919917,47.0721401 12.9651912,48.9899689 11.084645,50.6246822 Z M22.4998369,20.270925 C22.609797,20.1038571 22.7301401,20 22.9909668,20 C23.3637551,20 23.6059425,20.2679363 23.7171535,20.4275325 C23.9474566,20.7582314 24.0455325,21.2081791 23.9801069,21.6307802 L23.9801069,21.6312285 C23.7241589,23.2781477 23.3185952,25.8931044 22.6487021,29 C22.629187,28.9101898 22.609797,28.820529 22.5909074,28.7304199 C22.0358531,26.0038355 21.6406724,21.577432 22.4998369,20.270925 Z M22,42 C22.9610984,39.9940596 23.7638529,37.9637814 24.4359802,36 C25.4770205,37.7456722 26.7070724,39.3751081 28,40.8586501 C25.838106,41.0774244 23.8323745,41.4841184 22,42 Z M40.6662222,46.4714902 C39.9505478,47.1235858 38.7872013,47.1779168 37.9015265,46.6029241 C36.6852591,45.8122164 34.905024,44.5783214 33,43 C34.4880591,43.065717 36.0320445,43.224007 37.6254228,43.4944244 C38.785764,43.691204 39.7942677,44.1991183 40.4656452,44.9244803 C41.333941,45.864196 40.948206,46.2151816 40.6662222,46.4714902 Z" id="Shape" fill="#0077B7" fill-rule="nonzero"></path>
            <path d="M61.8666325,24 L34.1333675,24 C32.9551295,24 32,23.0532655 32,21.8853835 L32,10.1146165 C32,8.94673454 32.9551295,8 34.1333675,8 L61.8666325,8 C63.0448705,8 64,8.94673454 64,10.1146165 L64,21.8853835 C64,23.0532655 63.0448705,24 61.8666325,24 Z" id="Path" fill="#0077B7" fill-rule="nonzero" transform="translate(48.000000, 16.000000) scale(1, -1) translate(-48.000000, -16.000000) "></path>
            <text id="PDF" font-family="GoogleSans-Medium, Google Sans" font-size="12" font-weight="400" letter-spacing="-0.156521739" fill="#FFFFFF">
                <tspan x="37" y="20">PDF</tspan>
            </text>
        </g>
    </g>
</svg>